<mxfile host="app.diagrams.net" modified="2022-10-10T18:01:13.704Z" agent="5.0 (Windows NT 10.0; Win64; x64) AppleWebKit/537.36 (KHTML, like Gecko) Chrome/106.0.0.0 Safari/537.36" etag="B44hfYhCG5AO9uaqOj4m" version="20.4.0" type="github">
  <diagram id="Hd6_HOvl1Z_6X6F8vjRE" name="Page-1">
    <mxGraphModel dx="1422" dy="832" grid="1" gridSize="10" guides="1" tooltips="1" connect="1" arrows="1" fold="1" page="1" pageScale="1" pageWidth="850" pageHeight="1100" math="0" shadow="0">
      <root>
        <mxCell id="0" />
        <mxCell id="1" parent="0" />
        <mxCell id="3_pXsogMDmq3JiXas6NS-1" value="" style="rounded=0;whiteSpace=wrap;html=1;" parent="1" vertex="1">
          <mxGeometry x="90" y="100" width="230" height="100" as="geometry" />
        </mxCell>
        <mxCell id="3_pXsogMDmq3JiXas6NS-2" value="" style="rounded=0;whiteSpace=wrap;html=1;" parent="1" vertex="1">
          <mxGeometry x="100" y="290" width="210" height="80" as="geometry" />
        </mxCell>
        <mxCell id="3_pXsogMDmq3JiXas6NS-3" value="" style="rounded=0;whiteSpace=wrap;html=1;" parent="1" vertex="1">
          <mxGeometry x="80" y="450" width="160" height="100" as="geometry" />
        </mxCell>
        <mxCell id="3_pXsogMDmq3JiXas6NS-4" value="" style="rounded=0;whiteSpace=wrap;html=1;" parent="1" vertex="1">
          <mxGeometry x="460" y="290" width="180" height="70" as="geometry" />
        </mxCell>
        <mxCell id="3_pXsogMDmq3JiXas6NS-5" value="CRON JOB EVERY 20 minutes" style="text;html=1;strokeColor=none;fillColor=none;align=center;verticalAlign=middle;whiteSpace=wrap;rounded=0;" parent="1" vertex="1">
          <mxGeometry x="110" y="120" width="200" height="70" as="geometry" />
        </mxCell>
        <mxCell id="3_pXsogMDmq3JiXas6NS-6" value="POST CRON FUNCTION" style="text;html=1;strokeColor=none;fillColor=none;align=center;verticalAlign=middle;whiteSpace=wrap;rounded=0;" parent="1" vertex="1">
          <mxGeometry x="120" y="315" width="160" height="30" as="geometry" />
        </mxCell>
        <mxCell id="3_pXsogMDmq3JiXas6NS-7" value="API TO POST TO A GROUP" style="text;html=1;strokeColor=none;fillColor=none;align=center;verticalAlign=middle;whiteSpace=wrap;rounded=0;" parent="1" vertex="1">
          <mxGeometry x="500" y="310" width="120" height="35" as="geometry" />
        </mxCell>
        <mxCell id="3_pXsogMDmq3JiXas6NS-8" value="DATABASE TO KNOW WHIch channel to post to" style="text;html=1;strokeColor=none;fillColor=none;align=center;verticalAlign=middle;whiteSpace=wrap;rounded=0;" parent="1" vertex="1">
          <mxGeometry x="80" y="450" width="160" height="100" as="geometry" />
        </mxCell>
        <mxCell id="3_pXsogMDmq3JiXas6NS-10" value="" style="endArrow=classic;html=1;rounded=0;exitX=1;exitY=0.5;exitDx=0;exitDy=0;entryX=0;entryY=0.5;entryDx=0;entryDy=0;" parent="1" source="3_pXsogMDmq3JiXas6NS-2" target="3_pXsogMDmq3JiXas6NS-4" edge="1">
          <mxGeometry width="50" height="50" relative="1" as="geometry">
            <mxPoint x="400" y="270" as="sourcePoint" />
            <mxPoint x="450" y="220" as="targetPoint" />
            <Array as="points" />
          </mxGeometry>
        </mxCell>
        <mxCell id="3_pXsogMDmq3JiXas6NS-11" value="" style="endArrow=classic;html=1;rounded=0;" parent="1" edge="1">
          <mxGeometry width="50" height="50" relative="1" as="geometry">
            <mxPoint x="200" y="200" as="sourcePoint" />
            <mxPoint x="200" y="286" as="targetPoint" />
            <Array as="points">
              <mxPoint x="200" y="200" />
            </Array>
          </mxGeometry>
        </mxCell>
        <mxCell id="3_pXsogMDmq3JiXas6NS-12" value="" style="endArrow=classic;html=1;rounded=0;exitX=0.5;exitY=0;exitDx=0;exitDy=0;" parent="1" edge="1" source="3_pXsogMDmq3JiXas6NS-8">
          <mxGeometry width="50" height="50" relative="1" as="geometry">
            <mxPoint x="200" y="420" as="sourcePoint" />
            <mxPoint x="195" y="370" as="targetPoint" />
            <Array as="points" />
          </mxGeometry>
        </mxCell>
        <mxCell id="3_pXsogMDmq3JiXas6NS-13" value="Call" style="text;html=1;strokeColor=none;fillColor=none;align=center;verticalAlign=middle;whiteSpace=wrap;rounded=0;" parent="1" vertex="1">
          <mxGeometry x="220" y="230" width="60" height="30" as="geometry" />
        </mxCell>
        <mxCell id="3_pXsogMDmq3JiXas6NS-14" value="Post to group" style="text;html=1;strokeColor=none;fillColor=none;align=center;verticalAlign=middle;whiteSpace=wrap;rounded=0;" parent="1" vertex="1">
          <mxGeometry x="360" y="330" width="60" height="30" as="geometry" />
        </mxCell>
        <mxCell id="3_pXsogMDmq3JiXas6NS-16" value="Read which channel to post to stored on xano database" style="text;html=1;strokeColor=none;fillColor=none;align=center;verticalAlign=middle;whiteSpace=wrap;rounded=0;" parent="1" vertex="1">
          <mxGeometry x="10" y="550" width="420" height="30" as="geometry" />
        </mxCell>
        <mxCell id="KsL_yaV4-ewFxAvFqIdn-2" value="Posting table" style="shape=table;startSize=30;container=1;collapsible=0;childLayout=tableLayout;fontStyle=1;align=center;" vertex="1" parent="1">
          <mxGeometry x="90" y="630" width="330" height="150" as="geometry" />
        </mxCell>
        <mxCell id="KsL_yaV4-ewFxAvFqIdn-3" value="" style="shape=tableRow;horizontal=0;startSize=0;swimlaneHead=0;swimlaneBody=0;top=0;left=0;bottom=0;right=0;collapsible=0;dropTarget=0;fillColor=none;points=[[0,0.5],[1,0.5]];portConstraint=eastwest;" vertex="1" parent="KsL_yaV4-ewFxAvFqIdn-2">
          <mxGeometry y="30" width="330" height="40" as="geometry" />
        </mxCell>
        <mxCell id="KsL_yaV4-ewFxAvFqIdn-4" value="chat_id" style="shape=partialRectangle;html=1;whiteSpace=wrap;connectable=0;fillColor=none;top=0;left=0;bottom=0;right=0;overflow=hidden;" vertex="1" parent="KsL_yaV4-ewFxAvFqIdn-3">
          <mxGeometry width="96" height="40" as="geometry">
            <mxRectangle width="96" height="40" as="alternateBounds" />
          </mxGeometry>
        </mxCell>
        <mxCell id="KsL_yaV4-ewFxAvFqIdn-5" value="last_post_date" style="shape=partialRectangle;html=1;whiteSpace=wrap;connectable=0;fillColor=none;top=0;left=0;bottom=0;right=0;overflow=hidden;" vertex="1" parent="KsL_yaV4-ewFxAvFqIdn-3">
          <mxGeometry x="96" width="124" height="40" as="geometry">
            <mxRectangle width="124" height="40" as="alternateBounds" />
          </mxGeometry>
        </mxCell>
        <mxCell id="KsL_yaV4-ewFxAvFqIdn-6" value="index" style="shape=partialRectangle;html=1;whiteSpace=wrap;connectable=0;fillColor=none;top=0;left=0;bottom=0;right=0;overflow=hidden;" vertex="1" parent="KsL_yaV4-ewFxAvFqIdn-3">
          <mxGeometry x="220" width="110" height="40" as="geometry">
            <mxRectangle width="110" height="40" as="alternateBounds" />
          </mxGeometry>
        </mxCell>
        <mxCell id="KsL_yaV4-ewFxAvFqIdn-7" value="" style="shape=tableRow;horizontal=0;startSize=0;swimlaneHead=0;swimlaneBody=0;top=0;left=0;bottom=0;right=0;collapsible=0;dropTarget=0;fillColor=none;points=[[0,0.5],[1,0.5]];portConstraint=eastwest;" vertex="1" parent="KsL_yaV4-ewFxAvFqIdn-2">
          <mxGeometry y="70" width="330" height="40" as="geometry" />
        </mxCell>
        <mxCell id="KsL_yaV4-ewFxAvFqIdn-8" value="" style="shape=partialRectangle;html=1;whiteSpace=wrap;connectable=0;fillColor=none;top=0;left=0;bottom=0;right=0;overflow=hidden;" vertex="1" parent="KsL_yaV4-ewFxAvFqIdn-7">
          <mxGeometry width="96" height="40" as="geometry">
            <mxRectangle width="96" height="40" as="alternateBounds" />
          </mxGeometry>
        </mxCell>
        <mxCell id="KsL_yaV4-ewFxAvFqIdn-9" value="" style="shape=partialRectangle;html=1;whiteSpace=wrap;connectable=0;fillColor=none;top=0;left=0;bottom=0;right=0;overflow=hidden;" vertex="1" parent="KsL_yaV4-ewFxAvFqIdn-7">
          <mxGeometry x="96" width="124" height="40" as="geometry">
            <mxRectangle width="124" height="40" as="alternateBounds" />
          </mxGeometry>
        </mxCell>
        <mxCell id="KsL_yaV4-ewFxAvFqIdn-10" value="" style="shape=partialRectangle;html=1;whiteSpace=wrap;connectable=0;fillColor=none;top=0;left=0;bottom=0;right=0;overflow=hidden;" vertex="1" parent="KsL_yaV4-ewFxAvFqIdn-7">
          <mxGeometry x="220" width="110" height="40" as="geometry">
            <mxRectangle width="110" height="40" as="alternateBounds" />
          </mxGeometry>
        </mxCell>
        <mxCell id="KsL_yaV4-ewFxAvFqIdn-11" value="" style="shape=tableRow;horizontal=0;startSize=0;swimlaneHead=0;swimlaneBody=0;top=0;left=0;bottom=0;right=0;collapsible=0;dropTarget=0;fillColor=none;points=[[0,0.5],[1,0.5]];portConstraint=eastwest;" vertex="1" parent="KsL_yaV4-ewFxAvFqIdn-2">
          <mxGeometry y="110" width="330" height="40" as="geometry" />
        </mxCell>
        <mxCell id="KsL_yaV4-ewFxAvFqIdn-12" value="" style="shape=partialRectangle;html=1;whiteSpace=wrap;connectable=0;fillColor=none;top=0;left=0;bottom=0;right=0;overflow=hidden;" vertex="1" parent="KsL_yaV4-ewFxAvFqIdn-11">
          <mxGeometry width="96" height="40" as="geometry">
            <mxRectangle width="96" height="40" as="alternateBounds" />
          </mxGeometry>
        </mxCell>
        <mxCell id="KsL_yaV4-ewFxAvFqIdn-13" value="" style="shape=partialRectangle;html=1;whiteSpace=wrap;connectable=0;fillColor=none;top=0;left=0;bottom=0;right=0;overflow=hidden;" vertex="1" parent="KsL_yaV4-ewFxAvFqIdn-11">
          <mxGeometry x="96" width="124" height="40" as="geometry">
            <mxRectangle width="124" height="40" as="alternateBounds" />
          </mxGeometry>
        </mxCell>
        <mxCell id="KsL_yaV4-ewFxAvFqIdn-14" value="" style="shape=partialRectangle;html=1;whiteSpace=wrap;connectable=0;fillColor=none;top=0;left=0;bottom=0;right=0;overflow=hidden;" vertex="1" parent="KsL_yaV4-ewFxAvFqIdn-11">
          <mxGeometry x="220" width="110" height="40" as="geometry">
            <mxRectangle width="110" height="40" as="alternateBounds" />
          </mxGeometry>
        </mxCell>
        <mxCell id="KsL_yaV4-ewFxAvFqIdn-15" value="Posting table" style="shape=table;startSize=30;container=1;collapsible=0;childLayout=tableLayout;fontStyle=1;align=center;" vertex="1" parent="1">
          <mxGeometry x="90" y="800" width="330" height="150" as="geometry" />
        </mxCell>
        <mxCell id="KsL_yaV4-ewFxAvFqIdn-16" value="" style="shape=tableRow;horizontal=0;startSize=0;swimlaneHead=0;swimlaneBody=0;top=0;left=0;bottom=0;right=0;collapsible=0;dropTarget=0;fillColor=none;points=[[0,0.5],[1,0.5]];portConstraint=eastwest;" vertex="1" parent="KsL_yaV4-ewFxAvFqIdn-15">
          <mxGeometry y="30" width="330" height="40" as="geometry" />
        </mxCell>
        <mxCell id="KsL_yaV4-ewFxAvFqIdn-17" value="language" style="shape=partialRectangle;html=1;whiteSpace=wrap;connectable=0;fillColor=none;top=0;left=0;bottom=0;right=0;overflow=hidden;" vertex="1" parent="KsL_yaV4-ewFxAvFqIdn-16">
          <mxGeometry width="96" height="40" as="geometry">
            <mxRectangle width="96" height="40" as="alternateBounds" />
          </mxGeometry>
        </mxCell>
        <mxCell id="KsL_yaV4-ewFxAvFqIdn-18" value="category" style="shape=partialRectangle;html=1;whiteSpace=wrap;connectable=0;fillColor=none;top=0;left=0;bottom=0;right=0;overflow=hidden;" vertex="1" parent="KsL_yaV4-ewFxAvFqIdn-16">
          <mxGeometry x="96" width="124" height="40" as="geometry">
            <mxRectangle width="124" height="40" as="alternateBounds" />
          </mxGeometry>
        </mxCell>
        <mxCell id="KsL_yaV4-ewFxAvFqIdn-19" value="index" style="shape=partialRectangle;html=1;whiteSpace=wrap;connectable=0;fillColor=none;top=0;left=0;bottom=0;right=0;overflow=hidden;" vertex="1" parent="KsL_yaV4-ewFxAvFqIdn-16">
          <mxGeometry x="220" width="110" height="40" as="geometry">
            <mxRectangle width="110" height="40" as="alternateBounds" />
          </mxGeometry>
        </mxCell>
        <mxCell id="KsL_yaV4-ewFxAvFqIdn-20" value="" style="shape=tableRow;horizontal=0;startSize=0;swimlaneHead=0;swimlaneBody=0;top=0;left=0;bottom=0;right=0;collapsible=0;dropTarget=0;fillColor=none;points=[[0,0.5],[1,0.5]];portConstraint=eastwest;" vertex="1" parent="KsL_yaV4-ewFxAvFqIdn-15">
          <mxGeometry y="70" width="330" height="40" as="geometry" />
        </mxCell>
        <mxCell id="KsL_yaV4-ewFxAvFqIdn-21" value="english" style="shape=partialRectangle;html=1;whiteSpace=wrap;connectable=0;fillColor=none;top=0;left=0;bottom=0;right=0;overflow=hidden;" vertex="1" parent="KsL_yaV4-ewFxAvFqIdn-20">
          <mxGeometry width="96" height="40" as="geometry">
            <mxRectangle width="96" height="40" as="alternateBounds" />
          </mxGeometry>
        </mxCell>
        <mxCell id="KsL_yaV4-ewFxAvFqIdn-22" value="crypto" style="shape=partialRectangle;html=1;whiteSpace=wrap;connectable=0;fillColor=none;top=0;left=0;bottom=0;right=0;overflow=hidden;" vertex="1" parent="KsL_yaV4-ewFxAvFqIdn-20">
          <mxGeometry x="96" width="124" height="40" as="geometry">
            <mxRectangle width="124" height="40" as="alternateBounds" />
          </mxGeometry>
        </mxCell>
        <mxCell id="KsL_yaV4-ewFxAvFqIdn-23" value="1" style="shape=partialRectangle;html=1;whiteSpace=wrap;connectable=0;fillColor=none;top=0;left=0;bottom=0;right=0;overflow=hidden;" vertex="1" parent="KsL_yaV4-ewFxAvFqIdn-20">
          <mxGeometry x="220" width="110" height="40" as="geometry">
            <mxRectangle width="110" height="40" as="alternateBounds" />
          </mxGeometry>
        </mxCell>
        <mxCell id="KsL_yaV4-ewFxAvFqIdn-24" value="" style="shape=tableRow;horizontal=0;startSize=0;swimlaneHead=0;swimlaneBody=0;top=0;left=0;bottom=0;right=0;collapsible=0;dropTarget=0;fillColor=none;points=[[0,0.5],[1,0.5]];portConstraint=eastwest;" vertex="1" parent="KsL_yaV4-ewFxAvFqIdn-15">
          <mxGeometry y="110" width="330" height="40" as="geometry" />
        </mxCell>
        <mxCell id="KsL_yaV4-ewFxAvFqIdn-25" value="" style="shape=partialRectangle;html=1;whiteSpace=wrap;connectable=0;fillColor=none;top=0;left=0;bottom=0;right=0;overflow=hidden;" vertex="1" parent="KsL_yaV4-ewFxAvFqIdn-24">
          <mxGeometry width="96" height="40" as="geometry">
            <mxRectangle width="96" height="40" as="alternateBounds" />
          </mxGeometry>
        </mxCell>
        <mxCell id="KsL_yaV4-ewFxAvFqIdn-26" value="" style="shape=partialRectangle;html=1;whiteSpace=wrap;connectable=0;fillColor=none;top=0;left=0;bottom=0;right=0;overflow=hidden;" vertex="1" parent="KsL_yaV4-ewFxAvFqIdn-24">
          <mxGeometry x="96" width="124" height="40" as="geometry">
            <mxRectangle width="124" height="40" as="alternateBounds" />
          </mxGeometry>
        </mxCell>
        <mxCell id="KsL_yaV4-ewFxAvFqIdn-27" value="" style="shape=partialRectangle;html=1;whiteSpace=wrap;connectable=0;fillColor=none;top=0;left=0;bottom=0;right=0;overflow=hidden;" vertex="1" parent="KsL_yaV4-ewFxAvFqIdn-24">
          <mxGeometry x="220" width="110" height="40" as="geometry">
            <mxRectangle width="110" height="40" as="alternateBounds" />
          </mxGeometry>
        </mxCell>
        <mxCell id="KsL_yaV4-ewFxAvFqIdn-28" value="index - is a position of channel in Array (of channels that we get from MONGO)" style="text;html=1;strokeColor=none;fillColor=none;align=center;verticalAlign=middle;whiteSpace=wrap;rounded=0;" vertex="1" parent="1">
          <mxGeometry x="430" y="840" width="170" height="100" as="geometry" />
        </mxCell>
      </root>
    </mxGraphModel>
  </diagram>
</mxfile>
